<?xml version="1.0" encoding="UTF-8" standalone="no"?>
<!DOCTYPE svg PUBLIC "-//W3C//DTD SVG 1.1//EN" "http://www.w3.org/Graphics/SVG/1.1/DTD/svg11.dtd">
<svg width="100%" height="100%" viewBox="0 0 5556 4445" version="1.1" xmlns="http://www.w3.org/2000/svg" xmlns:xlink="http://www.w3.org/1999/xlink" xml:space="preserve" xmlns:serif="http://www.serif.com/" style="fill-rule:evenodd;clip-rule:evenodd;stroke-linejoin:round;stroke-miterlimit:2;">
    <g transform="matrix(1.33333,0,0,1.33333,0,0)">
        <g transform="matrix(4.16667,0,0,4.16667,0,0)">
            <g transform="matrix(0.718841,0.169552,-0.169552,0.718841,241.121,-3.95316)">
                <path d="M497.146,237.673C497.146,245.177 491.063,251.26 483.56,251.26C476.057,251.26 469.974,245.177 469.974,237.673C469.974,230.169 476.057,224.086 483.56,224.086C491.063,224.086 497.146,230.169 497.146,237.673Z" style="fill:rgb(226,215,54);fill-rule:nonzero;"/>
            </g>
            <g transform="matrix(0.718841,0.169552,-0.169552,0.718841,241.121,-3.95316)">
                <path d="M355.979,407.675C355.979,415.179 349.896,421.262 342.392,421.262C334.889,421.262 328.806,415.179 328.806,407.675C328.806,400.171 334.889,394.088 342.392,394.088C349.896,394.088 355.979,400.171 355.979,407.675Z" style="fill:rgb(226,215,54);fill-rule:nonzero;"/>
            </g>
            <g transform="matrix(0.718841,0.169552,-0.169552,0.718841,241.121,-3.95316)">
                <path d="M665.987,391.456C665.987,398.96 659.904,405.043 652.4,405.043C644.896,405.043 638.813,398.96 638.813,391.456C638.813,383.952 644.896,377.869 652.4,377.869C659.904,377.869 665.987,383.952 665.987,391.456Z" style="fill:rgb(12,156,54);fill-rule:nonzero;"/>
            </g>
            <g transform="matrix(0.718841,0.169552,-0.169552,0.718841,241.121,-3.95316)">
                <path d="M524.819,561.458C524.819,568.962 518.736,575.045 511.232,575.045C503.729,575.045 497.646,568.962 497.646,561.458C497.646,553.954 503.729,547.871 511.232,547.871C518.736,547.871 524.819,553.954 524.819,561.458Z" style="fill:rgb(226,215,54);fill-rule:nonzero;"/>
            </g>
            <g transform="matrix(0.718841,0.169552,-0.169552,0.718841,241.121,-3.95316)">
                <path d="M524.819,400C524.819,415.283 512.43,427.673 497.146,427.673C481.863,427.673 469.474,415.283 469.474,400C469.474,384.717 481.863,372.327 497.146,372.327C512.43,372.327 524.819,384.717 524.819,400Z" style="fill:rgb(12,156,54);fill-rule:nonzero;"/>
            </g>
            <g transform="matrix(0.718841,0.169552,-0.169552,0.718841,241.121,-3.95316)">
                <path d="M426.86,320.371C380.535,325.211 337.542,338.037 314.573,358.19C311.107,361.231 306.839,363.114 302.34,364.125C298.269,365.04 294.488,367.354 291.785,370.98C286.171,378.513 287.329,389.367 294.421,395.529C302.345,402.413 314.311,401.174 320.683,393.005C323.404,389.516 324.649,385.346 324.512,381.246C324.163,370.809 330.08,361.094 339.273,356.142C359.989,344.981 390.104,336.609 425.146,332.755C426.001,328.614 426.569,324.474 426.86,320.371Z" style="fill:rgb(109,72,21);fill-rule:nonzero;"/>
            </g>
            <g transform="matrix(0.718841,0.169552,-0.169552,0.718841,241.121,-3.95316)">
                <path d="M639.661,356.241C638.742,341.915 626.97,330.383 612.629,329.735C609.994,329.615 607.434,329.855 604.993,330.41C590.489,333.705 575.383,332.991 560.989,329.242C534.654,322.382 504.423,318.652 474.58,318.226C470.33,320.601 465.521,322.091 460.395,322.431L460.074,322.45C455.429,322.711 451.547,325.617 450.157,329.854C450.051,330.179 449.952,330.518 449.847,330.845C456.073,330.559 462.407,330.409 468.833,330.409C508.117,330.409 544.056,335.909 571.83,345.02C578.238,347.122 582.568,353.011 582.946,359.744C582.951,359.842 582.957,359.94 582.964,360.038C583.9,374.185 595.419,385.632 609.573,386.474C626.681,387.492 640.761,373.364 639.661,356.241Z" style="fill:rgb(109,72,21);fill-rule:nonzero;"/>
            </g>
            <g transform="matrix(0.718841,0.169552,-0.169552,0.718841,241.121,-3.95316)">
                <path d="M418.226,425.42C420.601,429.669 422.092,434.479 422.431,439.605L422.452,439.963C422.711,444.571 425.616,448.453 429.854,449.842C430.178,449.949 430.518,450.048 430.845,450.153C430.56,443.927 430.409,437.593 430.409,431.167C430.409,391.882 435.909,355.944 445.021,328.169C447.122,321.762 453.011,317.432 459.744,317.054C459.842,317.049 459.94,317.042 460.038,317.036C474.186,316.099 485.631,304.581 486.474,290.427C487.492,273.32 473.363,259.24 456.241,260.339C441.915,261.258 430.383,273.03 429.734,287.371C429.615,290.006 429.855,292.566 430.409,295.006C433.705,309.51 432.99,324.617 429.242,339.01C422.382,365.345 418.651,395.576 418.226,425.42Z" style="fill:rgb(12,156,54);fill-rule:nonzero;"/>
            </g>
            <g transform="matrix(0.718841,0.169552,-0.169552,0.718841,241.121,-3.95316)">
                <path d="M493.005,579.318C489.516,576.596 485.346,575.351 481.245,575.488C470.81,575.837 461.095,569.92 456.142,560.727C444.981,540.012 436.609,509.898 432.755,474.857C428.61,473.998 424.471,473.415 420.369,473.122C425.207,519.454 438.034,562.455 458.189,585.426C461.23,588.892 463.114,593.162 464.125,597.661C465.04,601.731 467.354,605.512 470.979,608.215C478.513,613.83 489.367,612.671 495.528,605.579C502.413,597.655 501.175,585.69 493.005,579.318Z" style="fill:rgb(12,156,54);fill-rule:nonzero;"/>
            </g>
            <g transform="matrix(0.718841,0.169552,-0.169552,0.718841,241.121,-3.95316)">
                <path d="M506.995,220.682C510.484,223.404 514.653,224.649 518.754,224.512C529.19,224.163 538.906,230.08 543.858,239.273C555.018,259.988 563.391,290.102 567.245,325.143C571.391,326.002 575.528,326.584 579.631,326.877C574.793,280.545 561.965,237.545 541.81,214.574C538.769,211.108 536.886,206.839 535.875,202.339C534.96,198.269 532.646,194.488 529.02,191.785C521.487,186.171 510.632,187.329 504.471,194.421C497.587,202.345 498.825,214.31 506.995,220.682Z" style="fill:rgb(109,72,21);fill-rule:nonzero;"/>
            </g>
            <g transform="matrix(0.718841,0.169552,-0.169552,0.718841,241.121,-3.95316)">
                <path d="M539.604,477.569L539.964,477.548C544.57,477.289 548.452,474.383 549.843,470.146C549.949,469.821 550.048,469.482 550.153,469.155C543.927,469.441 537.593,469.591 531.167,469.591C491.882,469.591 455.944,464.091 428.169,454.98C421.762,452.878 417.432,446.989 417.054,440.256C417.049,440.158 417.042,440.06 417.036,439.962C416.099,425.815 404.58,414.368 390.427,413.526C373.32,412.508 359.24,426.636 360.338,443.759C361.258,458.085 373.029,469.617 387.371,470.265C390.006,470.385 392.565,470.144 395.007,469.59C409.51,466.295 424.617,467.009 439.011,470.758C465.346,477.618 495.576,481.348 525.42,481.774C529.669,479.399 534.479,477.908 539.604,477.569Z" style="fill:rgb(12,156,54);fill-rule:nonzero;"/>
            </g>
            <g transform="matrix(0.718841,0.169552,-0.169552,0.718841,241.121,-3.95316)">
                <path d="M705.579,404.471C697.654,397.587 685.69,398.826 679.317,406.995C676.596,410.484 675.351,414.654 675.488,418.755C675.837,429.191 669.92,438.906 660.727,443.858C640.011,455.018 609.896,463.391 574.854,467.245C573.998,471.386 573.43,475.526 573.14,479.629C619.465,474.789 662.457,461.963 685.426,441.81C688.893,438.769 693.162,436.886 697.661,435.875C701.73,434.96 705.512,432.646 708.215,429.02C713.829,421.487 712.671,410.633 705.579,404.471Z" style="fill:rgb(12,156,54);fill-rule:nonzero;"/>
            </g>
            <g transform="matrix(0.718841,0.169552,-0.169552,0.718841,241.121,-3.95316)">
                <path d="M581.773,374.58C579.398,370.331 577.909,365.52 577.569,360.394L577.547,360.036C577.289,355.429 574.383,351.547 570.146,350.157C569.82,350.051 569.481,349.952 569.155,349.847C569.44,356.073 569.592,362.407 569.592,368.833C569.592,408.118 564.091,444.056 554.98,471.831C552.878,478.238 546.989,482.568 540.256,482.946C540.158,482.952 540.061,482.957 539.962,482.964C525.815,483.901 514.367,495.419 513.525,509.573C512.508,526.68 526.636,540.76 543.759,539.662C558.085,538.742 569.617,526.97 570.266,512.63C570.385,509.994 570.145,507.434 569.59,504.994C566.295,490.49 567.009,475.383 570.759,460.99C577.618,434.654 581.349,404.424 581.773,374.58Z" style="fill:rgb(109,72,21);fill-rule:nonzero;"/>
            </g>
            <g transform="matrix(0.24,0,1.88546e-18,0.24,291.823,296.465)">
                <g transform="matrix(300,0,0,300,359.994,1185.73)">
                    <path d="M0.51,-0.035C0.518,-0.013 0.539,-0 0.561,-0C0.568,-0 0.575,-0.001 0.58,-0.003C0.609,-0.014 0.623,-0.046 0.613,-0.075L0.392,-0.664C0.383,-0.686 0.362,-0.7 0.339,-0.699C0.317,-0.7 0.295,-0.686 0.286,-0.664L0.065,-0.075C0.055,-0.046 0.069,-0.014 0.098,-0.003C0.104,-0.001 0.11,-0 0.117,-0C0.139,-0 0.16,-0.013 0.169,-0.035L0.218,-0.165L0.461,-0.165L0.51,-0.035ZM0.258,-0.275L0.339,-0.49L0.42,-0.275L0.258,-0.275Z" style="fill:rgb(109,73,28);fill-rule:nonzero;"/>
                </g>
                <g transform="matrix(300,0,0,300,586.194,1185.73)">
                    <path d="M0.65,-0.7L0.649,-0.7C0.631,-0.7 0.615,-0.692 0.604,-0.677L0.405,-0.401L0.206,-0.677C0.196,-0.692 0.178,-0.7 0.162,-0.7L0.159,-0.7C0.129,-0.7 0.104,-0.675 0.104,-0.645L0.104,-0.055C0.104,-0.025 0.129,-0 0.159,-0C0.19,-0 0.215,-0.025 0.215,-0.055L0.215,-0.476L0.358,-0.276C0.369,-0.261 0.386,-0.253 0.404,-0.253L0.406,-0.253C0.424,-0.253 0.44,-0.261 0.451,-0.276L0.595,-0.476L0.595,-0.055C0.595,-0.025 0.619,-0 0.65,-0C0.68,-0 0.706,-0.025 0.706,-0.055L0.706,-0.645C0.706,-0.675 0.68,-0.699 0.65,-0.7Z" style="fill:rgb(109,73,28);fill-rule:nonzero;"/>
                </g>
                <g transform="matrix(300,0,0,300,871.794,1185.73)">
                    <path d="M0.587,-0.645C0.587,-0.676 0.562,-0.7 0.532,-0.7L0.105,-0.7C0.074,-0.7 0.05,-0.676 0.05,-0.645C0.05,-0.615 0.074,-0.589 0.105,-0.589L0.263,-0.589L0.263,-0.055C0.263,-0.024 0.288,-0 0.318,-0C0.349,-0 0.373,-0.024 0.373,-0.055L0.373,-0.589L0.532,-0.589C0.562,-0.589 0.587,-0.615 0.587,-0.645Z" style="fill:rgb(109,73,28);fill-rule:nonzero;"/>
                </g>
                <g transform="matrix(300,0,0,300,1098.59,1185.73)">
                    <path d="M0.462,-0.111L0.249,-0.111L0.438,-0.282C0.49,-0.329 0.517,-0.395 0.517,-0.46C0.517,-0.517 0.497,-0.576 0.455,-0.621C0.408,-0.673 0.342,-0.7 0.277,-0.7C0.22,-0.7 0.161,-0.68 0.116,-0.638L0.085,-0.61C0.062,-0.589 0.061,-0.555 0.081,-0.532C0.102,-0.509 0.136,-0.507 0.159,-0.528L0.19,-0.556C0.215,-0.578 0.246,-0.589 0.277,-0.589C0.312,-0.589 0.347,-0.576 0.373,-0.547C0.395,-0.522 0.406,-0.492 0.406,-0.46C0.406,-0.424 0.393,-0.39 0.364,-0.364L0.068,-0.096C0.046,-0.075 0.044,-0.041 0.065,-0.018C0.075,-0.006 0.091,-0 0.106,-0L0.462,-0C0.493,-0 0.517,-0.024 0.517,-0.055C0.517,-0.086 0.493,-0.111 0.462,-0.111Z" style="fill:rgb(109,73,28);fill-rule:nonzero;"/>
                </g>
                <g transform="matrix(300,0,0,300,1307.99,1185.73)">
                    <path d="M0.553,-0.485C0.553,-0.604 0.457,-0.7 0.338,-0.7L0.159,-0.7C0.129,-0.7 0.104,-0.676 0.104,-0.645L0.104,-0.055C0.104,-0.025 0.129,-0 0.159,-0C0.19,-0 0.215,-0.025 0.215,-0.055L0.215,-0.272L0.338,-0.272C0.457,-0.272 0.553,-0.368 0.553,-0.485ZM0.215,-0.589L0.338,-0.589C0.396,-0.589 0.441,-0.543 0.442,-0.485C0.441,-0.429 0.396,-0.383 0.338,-0.383L0.215,-0.383L0.215,-0.589Z" style="fill:rgb(109,73,28);fill-rule:nonzero;"/>
                </g>
                <g transform="matrix(300,0,0,300,1494.29,1185.73)">
                    <path d="M0.51,-0.035C0.518,-0.013 0.539,-0 0.561,-0C0.568,-0 0.575,-0.001 0.58,-0.003C0.609,-0.014 0.623,-0.046 0.613,-0.075L0.392,-0.664C0.383,-0.686 0.362,-0.7 0.339,-0.699C0.317,-0.7 0.295,-0.686 0.286,-0.664L0.065,-0.075C0.055,-0.046 0.069,-0.014 0.098,-0.003C0.104,-0.001 0.11,-0 0.117,-0C0.139,-0 0.16,-0.013 0.169,-0.035L0.218,-0.165L0.461,-0.165L0.51,-0.035ZM0.258,-0.275L0.339,-0.49L0.42,-0.275L0.258,-0.275Z" style="fill:rgb(109,73,28);fill-rule:nonzero;"/>
                </g>
            </g>
        </g>
    </g>
</svg>
