<?xml version="1.0" encoding="UTF-8" standalone="no"?>
<!DOCTYPE svg PUBLIC "-//W3C//DTD SVG 1.1//EN" "http://www.w3.org/Graphics/SVG/1.1/DTD/svg11.dtd">
<svg width="100%" height="100%" viewBox="0 0 1654 1654" version="1.1" xmlns="http://www.w3.org/2000/svg" xmlns:xlink="http://www.w3.org/1999/xlink" xml:space="preserve" xmlns:serif="http://www.serif.com/" style="fill-rule:evenodd;clip-rule:evenodd;stroke-linejoin:round;stroke-miterlimit:2;">
    <g transform="matrix(1.33333,0,0,1.33333,0,0)">
        <g transform="matrix(3.67742,0,0,3.67742,-2300,-1469.97)">
            <path d="M720.855,615.359C711.796,615.359 703.278,611.83 696.873,605.425C696.677,605.229 696.484,605.031 696.292,604.831C683.977,591.915 683.816,571.539 695.925,558.444C703.265,550.507 713.637,546.597 724.382,547.717C732.843,548.599 741.16,545.64 747.2,539.6L762.451,524.35L758.023,519.922C757.48,519.38 757.48,518.497 758.023,517.954L758.956,517.022C759.498,516.479 760.381,516.479 760.923,517.022L785.029,541.127C785.572,541.67 785.572,542.553 785.029,543.095L784.096,544.028C783.554,544.57 782.671,544.57 782.129,544.028L777.947,539.846L762.698,555.096C756.636,561.157 753.673,569.441 754.57,577.823C755.667,588.082 752.12,598.142 744.837,605.425C738.431,611.831 729.914,615.359 720.855,615.359ZM759.24,577.324C758.492,570.331 761.046,563.389 766.018,558.416L777.947,546.487L778.808,547.349C781.186,549.726 785.04,549.726 787.417,547.348L788.35,546.416C790.727,544.038 790.727,540.184 788.35,537.807L764.244,513.701C761.867,511.323 758.012,511.324 755.635,513.701L754.702,514.634C752.325,517.011 752.325,520.865 754.702,523.243L755.809,524.35L743.879,536.279C738.881,541.278 731.899,543.779 724.869,543.046C713.221,541.832 701.13,545.898 692.478,555.255C678.729,570.123 678.919,593.416 692.894,608.071C707.911,623.821 732.857,624.046 748.158,608.745C756.748,600.156 760.438,588.529 759.24,577.324Z" style="fill:rgb(174,102,50);fill-rule:nonzero;"/>
        </g>
        <g transform="matrix(3.67742,0,0,3.67742,-2300,-1469.97)">
            <path d="M751.976,578.101C751.162,570.491 753.26,562.963 757.779,556.836L757.779,556.824C740.41,571.111 753.877,582.733 741.394,598.045C734.78,606.158 727.127,609.975 718.58,608.991C708.667,607.85 702.099,602.288 699.347,593.122C693.531,573.751 706.312,562.594 706.312,562.594C692.321,581.688 706.957,601.058 706.957,601.058C729.466,580.331 714.806,557.118 710.886,551.753C705.98,553.396 701.5,556.257 697.841,560.215C686.664,572.302 686.813,591.109 698.181,603.03C698.358,603.216 698.537,603.399 698.717,603.58C705.451,610.313 712.492,612.75 720.855,612.75C729.217,612.75 737.08,609.493 742.993,603.58C749.715,596.858 752.989,587.571 751.976,578.101Z" style="fill:url(#_Linear1);"/>
        </g>
        <g transform="matrix(3.67742,0,0,3.67742,-2300,-1469.97)">
            <path d="M735.736,557.336C735.023,558.049 733.867,558.049 733.154,557.336C732.44,556.623 732.44,555.467 733.154,554.753C733.867,554.04 735.023,554.04 735.736,554.753C736.45,555.467 736.45,556.623 735.736,557.336Z" style="fill:url(#_Linear2);"/>
        </g>
        <g transform="matrix(3.67742,0,0,3.67742,-2300,-1469.97)">
            <path d="M744.223,555.307C743.331,556.198 741.886,556.198 740.994,555.307C740.103,554.415 740.103,552.97 740.994,552.078C741.886,551.187 743.331,551.187 744.223,552.078C745.114,552.97 745.114,554.415 744.223,555.307Z" style="fill:url(#_Linear3);"/>
        </g>
        <g transform="matrix(3.67742,0,0,3.67742,-2300,-1469.97)">
            <path d="M733.062,592.111C731.686,590.736 731.686,588.505 733.062,587.13C734.437,585.755 736.667,585.755 738.042,587.13C739.418,588.506 739.418,590.736 738.042,592.111C736.667,593.487 734.437,593.487 733.062,592.111ZM721.931,598.26C721.218,597.547 721.218,596.391 721.931,595.678C722.644,594.965 723.8,594.964 724.514,595.678C725.227,596.391 725.227,597.547 724.514,598.26C723.8,598.974 722.644,598.974 721.931,598.26ZM727.988,586.115C727.275,585.402 727.275,584.246 727.988,583.533C728.701,582.819 729.857,582.819 730.571,583.533C731.284,584.246 731.284,585.402 730.571,586.115C729.858,586.829 728.701,586.829 727.988,586.115ZM744.868,583.44C737.673,584.363 734.836,577.29 730.94,568.036C726.512,557.521 718.856,557.428 718.856,557.428C734.906,583.071 712.86,604.564 712.86,604.564C737.803,610.835 744.868,583.44 744.868,583.44Z" style="fill:url(#_Linear4);"/>
        </g>
        <g transform="matrix(3.67742,0,0,3.67742,-2300,-1469.97)">
            <path d="M743.3,569.881C741.925,571.256 739.695,571.256 738.319,569.881C736.944,568.505 736.944,566.275 738.319,564.9C739.695,563.524 741.925,563.524 743.3,564.9C744.676,566.275 744.676,568.505 743.3,569.881Z" style="fill:url(#_Linear5);"/>
        </g>
        <g transform="matrix(3.67742,0,0,3.67742,-2300,-1469.97)">
            <path d="M756.029,553.462C754.654,554.837 752.424,554.837 751.048,553.462C749.673,552.086 749.673,549.856 751.048,548.481C752.424,547.105 754.654,547.105 756.029,548.481C757.405,549.856 757.405,552.086 756.029,553.462Z" style="fill:url(#_Linear6);"/>
        </g>
        <g transform="matrix(3.67742,0,0,3.67742,-2300,-1469.97)">
            <path d="M764.669,542.117C762.666,544.12 759.417,544.12 757.413,542.117C755.409,540.113 755.409,536.864 757.413,534.86C759.417,532.856 762.666,532.856 764.669,534.86C766.673,536.864 766.673,540.113 764.669,542.117Z" style="fill:url(#_Linear7);"/>
        </g>
        <g transform="matrix(1,0,0,1,154.312,-380.321)">
            <g transform="matrix(108.333,0,0,108.333,359.994,1051.56)">
                <path d="M0.51,-0.035C0.518,-0.013 0.539,-0 0.561,-0C0.568,-0 0.575,-0.001 0.58,-0.003C0.609,-0.014 0.623,-0.046 0.613,-0.075L0.392,-0.664C0.383,-0.686 0.362,-0.7 0.339,-0.699C0.317,-0.7 0.295,-0.686 0.286,-0.664L0.065,-0.075C0.055,-0.046 0.069,-0.014 0.098,-0.003C0.104,-0.001 0.11,-0 0.117,-0C0.139,-0 0.16,-0.013 0.169,-0.035L0.218,-0.165L0.461,-0.165L0.51,-0.035ZM0.258,-0.275L0.339,-0.49L0.42,-0.275L0.258,-0.275Z" style="fill:rgb(174,102,50);fill-rule:nonzero;"/>
            </g>
            <g transform="matrix(108.333,0,0,108.333,429.977,1051.56)">
                <path d="M0.65,-0.7L0.649,-0.7C0.631,-0.7 0.615,-0.692 0.604,-0.677L0.405,-0.401L0.206,-0.677C0.196,-0.692 0.178,-0.7 0.162,-0.7L0.159,-0.7C0.129,-0.7 0.104,-0.675 0.104,-0.645L0.104,-0.055C0.104,-0.025 0.129,-0 0.159,-0C0.19,-0 0.215,-0.025 0.215,-0.055L0.215,-0.476L0.358,-0.276C0.369,-0.261 0.386,-0.253 0.404,-0.253L0.406,-0.253C0.424,-0.253 0.44,-0.261 0.451,-0.276L0.595,-0.476L0.595,-0.055C0.595,-0.025 0.619,-0 0.65,-0C0.68,-0 0.706,-0.025 0.706,-0.055L0.706,-0.645C0.706,-0.675 0.68,-0.699 0.65,-0.7Z" style="fill:rgb(174,102,50);fill-rule:nonzero;"/>
            </g>
            <g transform="matrix(108.333,0,0,108.333,521.41,1051.56)">
                <path d="M0.587,-0.645C0.587,-0.676 0.562,-0.7 0.532,-0.7L0.105,-0.7C0.074,-0.7 0.05,-0.676 0.05,-0.645C0.05,-0.615 0.074,-0.589 0.105,-0.589L0.263,-0.589L0.263,-0.055C0.263,-0.024 0.288,-0 0.318,-0C0.349,-0 0.373,-0.024 0.373,-0.055L0.373,-0.589L0.532,-0.589C0.562,-0.589 0.587,-0.615 0.587,-0.645Z" style="fill:rgb(174,102,50);fill-rule:nonzero;"/>
            </g>
            <g transform="matrix(108.333,0,0,108.333,591.61,1051.56)">
                <path d="M0.462,-0.111L0.249,-0.111L0.438,-0.282C0.49,-0.329 0.517,-0.395 0.517,-0.46C0.517,-0.517 0.497,-0.576 0.455,-0.621C0.408,-0.673 0.342,-0.7 0.277,-0.7C0.22,-0.7 0.161,-0.68 0.116,-0.638L0.085,-0.61C0.062,-0.589 0.061,-0.555 0.081,-0.532C0.102,-0.509 0.136,-0.507 0.159,-0.528L0.19,-0.556C0.215,-0.578 0.246,-0.589 0.277,-0.589C0.312,-0.589 0.347,-0.576 0.373,-0.547C0.395,-0.522 0.406,-0.492 0.406,-0.46C0.406,-0.424 0.393,-0.39 0.364,-0.364L0.068,-0.096C0.046,-0.075 0.044,-0.041 0.065,-0.018C0.075,-0.006 0.091,-0 0.106,-0L0.462,-0C0.493,-0 0.517,-0.024 0.517,-0.055C0.517,-0.086 0.493,-0.111 0.462,-0.111Z" style="fill:rgb(174,102,50);fill-rule:nonzero;"/>
            </g>
            <g transform="matrix(108.333,0,0,108.333,655.527,1051.56)">
                <path d="M0.553,-0.485C0.553,-0.604 0.457,-0.7 0.338,-0.7L0.159,-0.7C0.129,-0.7 0.104,-0.676 0.104,-0.645L0.104,-0.055C0.104,-0.025 0.129,-0 0.159,-0C0.19,-0 0.215,-0.025 0.215,-0.055L0.215,-0.272L0.338,-0.272C0.457,-0.272 0.553,-0.368 0.553,-0.485ZM0.215,-0.589L0.338,-0.589C0.396,-0.589 0.441,-0.543 0.442,-0.485C0.441,-0.429 0.396,-0.383 0.338,-0.383L0.215,-0.383L0.215,-0.589Z" style="fill:rgb(174,102,50);fill-rule:nonzero;"/>
            </g>
            <g transform="matrix(108.333,0,0,108.333,711.102,1051.56)">
                <path d="M0.51,-0.035C0.518,-0.013 0.539,-0 0.561,-0C0.568,-0 0.575,-0.001 0.58,-0.003C0.609,-0.014 0.623,-0.046 0.613,-0.075L0.392,-0.664C0.383,-0.686 0.362,-0.7 0.339,-0.699C0.317,-0.7 0.295,-0.686 0.286,-0.664L0.065,-0.075C0.055,-0.046 0.069,-0.014 0.098,-0.003C0.104,-0.001 0.11,-0 0.117,-0C0.139,-0 0.16,-0.013 0.169,-0.035L0.218,-0.165L0.461,-0.165L0.51,-0.035ZM0.258,-0.275L0.339,-0.49L0.42,-0.275L0.258,-0.275Z" style="fill:rgb(174,102,50);fill-rule:nonzero;"/>
            </g>
        </g>
    </g>
    <defs>
        <linearGradient id="_Linear1" x1="0" y1="0" x2="1" y2="0" gradientUnits="userSpaceOnUse" gradientTransform="matrix(-132.09,58.2965,-58.2965,-132.09,751.012,568.135)"><stop offset="0" style="stop-color:rgb(140,197,67);stop-opacity:1"/><stop offset="1" style="stop-color:rgb(84,132,62);stop-opacity:1"/></linearGradient>
        <linearGradient id="_Linear2" x1="0" y1="0" x2="1" y2="0" gradientUnits="userSpaceOnUse" gradientTransform="matrix(-6.43184,2.83863,-2.83863,-6.43184,735.637,555.519)"><stop offset="0" style="stop-color:rgb(140,197,67);stop-opacity:1"/><stop offset="1" style="stop-color:rgb(84,132,62);stop-opacity:1"/></linearGradient>
        <linearGradient id="_Linear3" x1="0" y1="0" x2="1" y2="0" gradientUnits="userSpaceOnUse" gradientTransform="matrix(-8.0398,3.54829,-3.54829,-8.0398,744.098,553.035)"><stop offset="0" style="stop-color:rgb(140,197,67);stop-opacity:1"/><stop offset="1" style="stop-color:rgb(84,132,62);stop-opacity:1"/></linearGradient>
        <linearGradient id="_Linear4" x1="0" y1="0" x2="1" y2="0" gradientUnits="userSpaceOnUse" gradientTransform="matrix(-66.5647,29.3777,-29.3777,-66.5647,735.423,575.465)"><stop offset="0" style="stop-color:rgb(140,197,67);stop-opacity:1"/><stop offset="1" style="stop-color:rgb(84,132,62);stop-opacity:1"/></linearGradient>
        <linearGradient id="_Linear5" x1="0" y1="0" x2="1" y2="0" gradientUnits="userSpaceOnUse" gradientTransform="matrix(-12.4043,5.4745,-5.4745,-12.4043,743.108,566.376)"><stop offset="0" style="stop-color:rgb(140,197,67);stop-opacity:1"/><stop offset="1" style="stop-color:rgb(84,132,62);stop-opacity:1"/></linearGradient>
        <linearGradient id="_Linear6" x1="0" y1="0" x2="1" y2="0" gradientUnits="userSpaceOnUse" gradientTransform="matrix(-12.4043,5.4745,-5.4745,-12.4043,755.838,549.957)"><stop offset="0" style="stop-color:rgb(140,197,67);stop-opacity:1"/><stop offset="1" style="stop-color:rgb(84,132,62);stop-opacity:1"/></linearGradient>
        <linearGradient id="_Linear7" x1="0" y1="0" x2="1" y2="0" gradientUnits="userSpaceOnUse" gradientTransform="matrix(-18.0712,7.97555,-7.97555,-18.0712,764.39,537.01)"><stop offset="0" style="stop-color:rgb(140,197,67);stop-opacity:1"/><stop offset="1" style="stop-color:rgb(84,132,62);stop-opacity:1"/></linearGradient>
    </defs>
</svg>
