<?xml version="1.0" encoding="UTF-8" standalone="no"?>
<!DOCTYPE svg PUBLIC "-//W3C//DTD SVG 1.1//EN" "http://www.w3.org/Graphics/SVG/1.1/DTD/svg11.dtd">
<svg width="100%" height="100%" viewBox="0 0 1654 1654" version="1.1" xmlns="http://www.w3.org/2000/svg" xmlns:xlink="http://www.w3.org/1999/xlink" xml:space="preserve" xmlns:serif="http://www.serif.com/" style="fill-rule:evenodd;clip-rule:evenodd;stroke-linejoin:round;stroke-miterlimit:2;">
    <g transform="matrix(1.33333,0,0,1.33333,0,0)">
        <g transform="matrix(0.745838,0,0,0.745838,247.126,230.476)">
            <path d="M603.177,449.958C587.062,454.271 569.872,449.227 558.075,437.43L555.124,434.479C551.855,431.21 549.484,427.298 548.024,423.064C545.455,428.425 542,433.387 537.706,437.68C533.402,441.984 528.489,445.453 523.164,448.024C527.37,449.486 531.256,451.848 534.506,455.099L537.765,458.358C549.598,470.19 554.093,487.407 549.866,503.599C543.337,528.606 549.866,556.315 569.462,575.911C600.225,606.674 650.984,605.251 679.896,571.643C704.261,543.322 703.898,500.733 679.098,472.791C659.288,450.472 629.676,442.865 603.177,449.958Z" style="fill:rgb(42,179,79);fill-rule:nonzero;"/>
        </g>
        <g transform="matrix(0.745838,0,0,0.745838,247.126,230.476)">
            <path d="M395.644,350.295C412.33,346.117 429.987,350.58 442.15,362.743L443.885,364.478C447.489,368.082 450.211,372.424 451.858,377.121C454.439,371.669 457.937,366.625 462.294,362.268C466.662,357.9 471.656,354.386 477.073,351.804C472.404,350.154 468.089,347.444 464.504,343.859L462.767,342.121C450.832,330.186 445.801,312.814 450.097,296.492C457.05,270.071 449.416,240.61 427.183,220.876C399.241,196.075 356.652,195.713 328.331,220.078C294.723,248.99 293.3,299.749 324.063,330.511C343.468,349.917 370.828,356.509 395.644,350.295Z" style="fill:rgb(42,179,79);fill-rule:nonzero;"/>
        </g>
        <g transform="matrix(0.745838,0,0,0.745838,247.126,230.476)">
            <path d="M572.817,220.876C550.499,240.686 542.892,270.297 549.984,296.796C554.297,312.912 549.253,330.102 537.457,341.898L534.505,344.85C527.44,351.915 517.392,354.84 507.526,353.257C493.048,350.933 477.699,355.348 466.537,366.51C455.375,377.672 450.959,393.021 453.283,407.5C454.927,417.746 451.224,428.131 443.885,435.469L442.147,437.208C430.212,449.142 412.84,454.172 396.518,449.877C370.097,442.924 340.636,450.558 320.902,472.791C296.102,500.732 295.739,543.321 320.104,571.643C349.016,605.251 399.775,606.674 430.538,575.911C449.943,556.506 456.535,529.146 450.321,504.33C446.144,487.644 450.606,469.987 462.769,457.823L464.504,456.089C471.842,448.751 482.227,445.047 492.473,446.691C506.952,449.015 522.301,444.6 533.464,433.438C544.626,422.275 549.041,406.926 546.717,392.447C545.134,382.582 548.06,372.533 555.125,365.468L558.384,362.209C570.217,350.376 587.434,345.881 603.625,350.108C628.633,356.637 656.341,350.108 675.938,330.511C706.7,299.749 705.277,248.99 671.669,220.078C643.348,195.712 600.759,196.075 572.817,220.876Z" style="fill:rgb(148,79,40);fill-rule:nonzero;"/>
        </g>
        <g transform="matrix(0.745838,0,0,0.745838,247.126,230.476)">
            <path d="M527,306.835C527,321.746 514.912,333.835 500,333.835C485.088,333.835 473,321.746 473,306.835C473,291.923 485.088,279.835 500,279.835C514.912,279.835 527,291.923 527,306.835Z" style="fill:rgb(222,226,64);fill-rule:nonzero;"/>
        </g>
        <g transform="matrix(0.745838,0,0,0.745838,247.126,230.476)">
            <path d="M527,495.835C527,510.746 514.912,522.836 500,522.836C485.088,522.836 473,510.746 473,495.835C473,480.923 485.088,468.835 500,468.835C514.912,468.835 527,480.923 527,495.835Z" style="fill:rgb(222,226,64);fill-rule:nonzero;"/>
        </g>
        <g transform="matrix(0.745838,0,0,0.745838,247.126,230.476)">
            <path d="M405.5,374.335C420.412,374.335 432.5,386.423 432.5,401.335C432.5,416.246 420.412,428.335 405.5,428.335C390.588,428.335 378.5,416.246 378.5,401.335C378.5,386.423 390.588,374.335 405.5,374.335Z" style="fill:rgb(220,225,67);fill-rule:nonzero;"/>
        </g>
        <g transform="matrix(0.745838,0,0,0.745838,247.126,230.476)">
            <path d="M594.5,374.335C609.412,374.335 621.5,386.423 621.5,401.335C621.5,416.246 609.412,428.335 594.5,428.335C579.588,428.335 567.5,416.246 567.5,401.335C567.5,386.423 579.588,374.335 594.5,374.335Z" style="fill:rgb(222,226,64);fill-rule:nonzero;"/>
        </g>
        <g transform="matrix(1,0,0,1,27.032,-277.725)">
            <g transform="matrix(125,0,0,125,359.994,1063.23)">
                <path d="M0.51,-0.035C0.518,-0.013 0.539,-0 0.561,-0C0.568,-0 0.575,-0.001 0.58,-0.003C0.609,-0.014 0.623,-0.046 0.613,-0.075L0.392,-0.664C0.383,-0.686 0.362,-0.7 0.339,-0.699C0.317,-0.7 0.295,-0.686 0.286,-0.664L0.065,-0.075C0.055,-0.046 0.069,-0.014 0.098,-0.003C0.104,-0.001 0.11,-0 0.117,-0C0.139,-0 0.16,-0.013 0.169,-0.035L0.218,-0.165L0.461,-0.165L0.51,-0.035ZM0.258,-0.275L0.339,-0.49L0.42,-0.275L0.258,-0.275Z" style="fill:rgb(148,79,40);fill-rule:nonzero;"/>
            </g>
            <g transform="matrix(125,0,0,125,440.744,1063.23)">
                <path d="M0.65,-0.7L0.649,-0.7C0.631,-0.7 0.615,-0.692 0.604,-0.677L0.405,-0.401L0.206,-0.677C0.196,-0.692 0.178,-0.7 0.162,-0.7L0.159,-0.7C0.129,-0.7 0.104,-0.675 0.104,-0.645L0.104,-0.055C0.104,-0.025 0.129,-0 0.159,-0C0.19,-0 0.215,-0.025 0.215,-0.055L0.215,-0.476L0.358,-0.276C0.369,-0.261 0.386,-0.253 0.404,-0.253L0.406,-0.253C0.424,-0.253 0.44,-0.261 0.451,-0.276L0.595,-0.476L0.595,-0.055C0.595,-0.025 0.619,-0 0.65,-0C0.68,-0 0.706,-0.025 0.706,-0.055L0.706,-0.645C0.706,-0.675 0.68,-0.699 0.65,-0.7Z" style="fill:rgb(148,79,40);fill-rule:nonzero;"/>
            </g>
            <g transform="matrix(125,0,0,125,546.244,1063.23)">
                <path d="M0.587,-0.645C0.587,-0.676 0.562,-0.7 0.532,-0.7L0.105,-0.7C0.074,-0.7 0.05,-0.676 0.05,-0.645C0.05,-0.615 0.074,-0.589 0.105,-0.589L0.263,-0.589L0.263,-0.055C0.263,-0.024 0.288,-0 0.318,-0C0.349,-0 0.373,-0.024 0.373,-0.055L0.373,-0.589L0.532,-0.589C0.562,-0.589 0.587,-0.615 0.587,-0.645Z" style="fill:rgb(148,79,40);fill-rule:nonzero;"/>
            </g>
            <g transform="matrix(125,0,0,125,627.244,1063.23)">
                <path d="M0.462,-0.111L0.249,-0.111L0.438,-0.282C0.49,-0.329 0.517,-0.395 0.517,-0.46C0.517,-0.517 0.497,-0.576 0.455,-0.621C0.408,-0.673 0.342,-0.7 0.277,-0.7C0.22,-0.7 0.161,-0.68 0.116,-0.638L0.085,-0.61C0.062,-0.589 0.061,-0.555 0.081,-0.532C0.102,-0.509 0.136,-0.507 0.159,-0.528L0.19,-0.556C0.215,-0.578 0.246,-0.589 0.277,-0.589C0.312,-0.589 0.347,-0.576 0.373,-0.547C0.395,-0.522 0.406,-0.492 0.406,-0.46C0.406,-0.424 0.393,-0.39 0.364,-0.364L0.068,-0.096C0.046,-0.075 0.044,-0.041 0.065,-0.018C0.075,-0.006 0.091,-0 0.106,-0L0.462,-0C0.493,-0 0.517,-0.024 0.517,-0.055C0.517,-0.086 0.493,-0.111 0.462,-0.111Z" style="fill:rgb(148,79,40);fill-rule:nonzero;"/>
            </g>
            <g transform="matrix(125,0,0,125,700.994,1063.23)">
                <path d="M0.553,-0.485C0.553,-0.604 0.457,-0.7 0.338,-0.7L0.159,-0.7C0.129,-0.7 0.104,-0.676 0.104,-0.645L0.104,-0.055C0.104,-0.025 0.129,-0 0.159,-0C0.19,-0 0.215,-0.025 0.215,-0.055L0.215,-0.272L0.338,-0.272C0.457,-0.272 0.553,-0.368 0.553,-0.485ZM0.215,-0.589L0.338,-0.589C0.396,-0.589 0.441,-0.543 0.442,-0.485C0.441,-0.429 0.396,-0.383 0.338,-0.383L0.215,-0.383L0.215,-0.589Z" style="fill:rgb(148,79,40);fill-rule:nonzero;"/>
            </g>
            <g transform="matrix(125,0,0,125,765.119,1063.23)">
                <path d="M0.51,-0.035C0.518,-0.013 0.539,-0 0.561,-0C0.568,-0 0.575,-0.001 0.58,-0.003C0.609,-0.014 0.623,-0.046 0.613,-0.075L0.392,-0.664C0.383,-0.686 0.362,-0.7 0.339,-0.699C0.317,-0.7 0.295,-0.686 0.286,-0.664L0.065,-0.075C0.055,-0.046 0.069,-0.014 0.098,-0.003C0.104,-0.001 0.11,-0 0.117,-0C0.139,-0 0.16,-0.013 0.169,-0.035L0.218,-0.165L0.461,-0.165L0.51,-0.035ZM0.258,-0.275L0.339,-0.49L0.42,-0.275L0.258,-0.275Z" style="fill:rgb(148,79,40);fill-rule:nonzero;"/>
            </g>
        </g>
    </g>
</svg>
